<svg fill="none" height="38" viewBox="0 0 40 38" width="40" xmlns="http://www.w3.org/2000/svg"><path d="m31.2581 3.50238c-4.571-2.874043-10.1066-3.880876-15.4243-2.805413-5.1774 1.049523-9.71976 4.068713-12.63234 8.396363-2.832672 4.23087-3.840608 9.39037-2.803084 14.34857 1.038724 4.854 4.294874 9.0323 8.423994 11.424 4.08653 2.3881 8.88763 3.3209 13.59363 2.641 4.8608-.6693 9.3461-2.9366 12.7226-6.4309 3.5214-3.6129 5.4809-9.0937 4.6853-14.4137-.3872-2.6661-1.3521-5.2201-2.8296-7.49003-1.4775-2.26994-3.4334-4.20325-5.7362-5.66989zm1.07 25.63892c-.9483 1.9619-2.3465 3.682-4.0852 5.0257-1.7388 1.3438-3.7708 2.2749-5.9374 2.7203-2.2203.4422-4.5132.3929-6.7116-.1443s-4.2469-1.5488-5.99617-2.961c-3.45137-2.7927-5.50672-6.8139-6.03529-10.8838-.56423-4.0653.5371-8.1842 3.06277-11.4547 2.45698-3.16316 6.09229-5.2419 10.10919-5.78061 1.9225-.24963 3.8767-.11761 5.7462.38822s3.6163 1.37515 5.1364 2.55629c2.977 2.2944 5.0581 5.524 5.8935 9.146.8214 3.5931.628 7.6088-1.1824 11.3879z" fill="#010118"/></svg>