<svg fill="none" height="86" viewBox="0 0 318 86" width="318" xmlns="http://www.w3.org/2000/svg"><g fill="#010118"><path d="m12.6075 13.9387h-6.26987l-1.00647 2.9291h-4.674479l6.419029-16.86676002h4.79379l6.419 16.86676002h-4.6745zm-1.163-3.3316-1.998-5.61981-1.94584 5.61981z"/><path d="m45.4555.00103998v13.15506002h5.2188v3.7266h-9.6025v-16.88166002z"/><path d="m83.4256 3.72768h-5.2187v2.80244h4.9205v3.72668h-4.9205v2.9067h5.2187v3.7267h-9.6025v-16.88916002h9.6025z"/><path d="m112.263 7.87171-5.256-7.87067002h5.412l2.289 4.36017002 2.84-4.36017002h5.413l-5.569 7.87067002 6.285 8.99609h-5.383l-3.377-5.5005-3.966 5.5005h-5.301z"/><path d="m156.614 13.9387h-6.262l-1.007 2.9291h-4.682l6.434-16.86676002h4.787l6.396 16.86676002h-4.682zm-1.163-3.3316-1.968-5.61981-1.968 5.61981z"/><path d="m185.079 16.8678v-16.86676002h4.383l8.104 10.31536002v-10.31536002h4.362v16.86676002h-4.362l-8.104-10.31532v10.31532z"/><path d="m226.314.00109923h6.494c1.113-.00712928 2.215.22945477 3.228.69315577.988.448685 1.885 1.075245 2.646 1.848415.756.77189 1.358 1.6798 1.775 2.67573.423 1.01291.641 2.09973.641 3.19746s-.218 2.18454-.641 3.19744c-.413 1.0033-1.012 1.919-1.767 2.6981-.745.7758-1.627 1.4075-2.602 1.8633-1.02.4653-2.129.7019-3.25.6932h-6.494zm4.391 13.15500077h1.007c.695.0118 1.386-.1096 2.035-.3577.56-.2208 1.068-.5559 1.491-.9838.415-.4254.735-.9334.939-1.4907.223-.60605.334-1.24746.329-1.89313.004-.64137-.11-1.2781-.336-1.87823-.21-.56468-.538-1.0781-.963-1.50606-.424-.42796-.934-.76065-1.497-.97589-.642-.24672-1.325-.36816-2.013-.35775h-1.007z"/><path d="m278.784 16.8679h-5.42l-4.182-6.4844v6.4844h-4.384v-16.86682706h6.822c.838-.01482624 1.672.12411406 2.46.40993106.654.248927 1.246.635276 1.737 1.132896.454.47478.804 1.03811 1.029 1.65463.233.64504.349 1.32653.343 2.01239.054 1.1155-.272 2.21629-.924 3.12293-.697.84537-1.668 1.42023-2.744 1.62481zm-9.639-9.33156h.827c.705.04972 1.406-.13932 1.991-.53663.231-.18263.414-.41817.535-.68671.121-.26855.175-.5622.158-.85612.017-.29392-.037-.58757-.158-.85612-.121-.26854-.304-.50409-.535-.68671-.586-.39364-1.286-.58232-1.991-.53664h-.827z"/><path d="m311.812 13.9387h-6.263l-1.006 2.9291h-4.675l6.419-16.86676002h4.786l6.427 16.86676002h-4.682zm-1.171-3.3316-1.968-5.61981-1.968 5.61981z"/><path d="m3.37051 34.2862 4.66702 11.7016 4.73417-11.7016h2.7882l-7.60437 18.1413-7.365853-18.1413z"/><path d="m51.3825 47.0685h-7.2242l-1.9085 4.0919h-2.7138l8.35-17.8879 8.0517 17.8879h-2.7883zm-1.0363-2.3925-2.5049-5.739-2.6094 5.739z"/><path d="m83.2541 51.1603v-18.0146l12.3087 12.8719v-11.7315h2.5422v17.8879l-12.2863-12.8197v11.806z"/><path d="m141.167 51.1604h-5.465l-4.182-6.4844v6.4844h-4.384v-16.8743h6.814c.839-.0159 1.674.1257 2.46.4174.637.2331 1.214.6038 1.691 1.0857.477.4818.842 1.0629 1.068 1.7019.236.6446.354 1.326.35 2.0123.052 1.1164-.277 2.2173-.932 3.123-.696.8453-1.667 1.4202-2.743 1.6248zm-9.647-9.3241h.827c.705.0457 1.405-.143 1.991-.5366.218-.1944.392-.4327.512-.6992.119-.2665.181-.5553.181-.8474 0-.292-.062-.5808-.181-.8474-.12-.2665-.294-.5048-.512-.6991-.586-.3937-1.286-.5824-1.991-.5367h-.827z"/><path d="m175.178 34.2862v16.8742h-4.384v-16.8742zm11.183 0v12.7377c.001.4559-.027.9114-.082 1.3639-.039.367-.124.7277-.254 1.0733-.289.6759-.724 1.2792-1.275 1.7664-1.05.9444-2.419 1.4558-3.832 1.431-.897.0124-1.782-.2102-2.567-.6456-.784-.4354-1.441-1.0685-1.906-1.8363l2.863-2.9292c.047.4408.218.8593.492 1.2075.112.141.255.2546.418.3321s.341.1169.522.1151c.82 0 1.23-.6485 1.23-1.9453v-12.6706z"/><path d="m229.87 39.9283c-.442-.5784-1.012-1.0468-1.665-1.3687s-1.372-.4886-2.1-.4872c-.624-.006-1.243.1157-1.819.3578-.541.2274-1.033.5591-1.446.9764-.413.428-.735.935-.947 1.4906-.236.5824-.355 1.2054-.35 1.8335-.006.6356.113 1.2661.35 1.8559.218.548.542 1.0474.954 1.4695s.904.7586 1.447.9901c.565.2409 1.174.3627 1.789.3577.722-.013 1.433-.1793 2.086-.4877.653-.3083 1.233-.7518 1.701-1.301v5.2173l-.447.1565c-.615.2224-1.246.3992-1.886.5292-.568.1092-1.145.1641-1.723.1639-2.299-.0226-4.498-.9427-6.128-2.5639-.824-.8182-1.486-1.784-1.953-2.8472-.482-1.1312-.73-2.348-.73-3.5775s.248-2.4464.73-3.5776c.704-1.5743 1.849-2.9115 3.296-3.8503 1.447-.9389 3.135-1.4395 4.86-1.4415.667.0006 1.332.0731 1.983.2161.703.1534 1.389.373 2.05.6559z"/><path d="m265.536 41.2476 5.346-6.9614h5.42l-6.71 7.9899 7.321 8.8769h-5.688l-5.704-7.3117v7.3117h-4.383v-16.8668h4.383z"/><path d="m316.262 38.0128h-5.218v2.8248h4.92v3.7267h-4.92v2.9067h5.218v3.7267h-9.595v-16.9115h9.595z"/><path d="m5.26395 68.5714 4.07805 10.2706 4.093-10.2706h4.7639l-7.1124 16.8816h-3.48904l-7.09746-16.8816z"/><path d="m143.739 85.4529h-5.465l-4.182-6.4843v6.4843h-4.384v-16.8816h6.822c.839-.0159 1.673.1257 2.46.4174.637.2314 1.215.6005 1.693 1.0811.479.4805.845 1.0606 1.073 1.6989.235.6472.354 1.3312.35 2.0199.051 1.1139-.278 2.2121-.932 3.1154-.696.8454-1.667 1.4203-2.743 1.6248zm-9.647-9.324h.827c.705.0457 1.405-.143 1.991-.5366.218-.1944.392-.4327.512-.6992.119-.2666.181-.5553.181-.8474s-.062-.5809-.181-.8474c-.12-.2665-.294-.5048-.512-.6992-.588-.3905-1.287-.5789-1.991-.5366h-.827z"/><path d="m199.743 72.9017c-.431-.3556-.914-.6445-1.431-.8571-.44-.1802-.911-.2763-1.387-.2832-.494-.0228-.981.1187-1.386.4024-.168.1185-.305.2761-.399.4592-.093.1831-.141.3862-.138.5917-.01.2737.086.5406.268.7454.203.2089.443.3783.709.4993.316.1527.645.2774.984.3727.365.1044.745.2162 1.081.3354 1.204.3338 2.293.9941 3.146 1.9081.695.8884 1.049 1.9961.999 3.1229.01.804-.139 1.602-.44 2.3478-.283.6902-.719 1.307-1.275 1.8037-.6.5227-1.3.9183-2.058 1.1627-.893.2866-1.827.4251-2.766.4099-2.125.0019-4.198-.6628-5.926-1.9006l1.878-3.5328c.578.5298 1.235.9672 1.946 1.2968.597.2735 1.245.4183 1.901.4249.578.0454 1.151-.1305 1.603-.4919.162-.1384.292-.3097.382-.5025.09-.1929.138-.4027.14-.6155.005-.2283-.041-.4548-.134-.6634-.108-.2036-.261-.3797-.448-.5143-.251-.1786-.524-.324-.812-.4323-.336-.1341-.746-.2832-1.223-.4472-.477-.1639-1.126-.3801-1.67-.5962-.528-.205-1.019-.4945-1.454-.8571-.436-.3735-.786-.8361-1.028-1.3565-.282-.6533-.415-1.3612-.388-2.0721-.008-.7647.131-1.5238.41-2.2359.261-.6564.657-1.2506 1.163-1.7441.526-.5011 1.15-.887 1.834-1.1329.78-.2777 1.603-.414 2.43-.4025.884.0076 1.763.1253 2.617.3503.91.2301 1.789.5706 2.617 1.0137z"/><path d="m259.453 72.298h-5.219v2.8174h4.921v3.7266h-4.921v2.9068h5.219v3.7266h-9.602v-16.904h9.602z"/><path d="m311.901 68.5714v13.155h5.256v3.7266h-9.64v-16.8816z"/><path d="m71.9442 85.6543c.8837-.1844 1.7125-.5711 2.4214-1.1298s1.2785-1.2741 1.6641-2.0901c.6848-1.4794.8554-3.1453.4846-4.7328-.341-1.5064-1.1915-2.849-2.408-3.8012-.6237-.4966-1.3417-.8617-2.1106-1.0731-.7688-.2114-1.5726-.2647-2.3626-.1567-1.6386.226-3.121 1.0916-4.1228 2.4075-.5105.673-.8832 1.4401-1.0969 2.2573-.2136.8173-.264 1.6686-.1482 2.5053.2188 1.7647 1.0978 3.3811 2.4603 4.5242.719.5897 1.5607 1.0114 2.4636 1.2345.9028.2231 1.8441.2418 2.7551.0549zm.0448.2534c-1.9177.2871-3.8755-.1002-5.5393-1.0956-.8678-.5137-1.6206-1.2003-2.2118-2.017-.5913-.8167-1.0083-1.7462-1.2251-2.7308-.4243-2.0601-.0141-4.2044 1.1406-5.9626.5874-.8912 1.3447-1.658 2.2287-2.2565.8839-.5985 1.8772-1.017 2.9229-1.2317 2.1689-.4491 4.4274-.0318 6.2923 1.1628.9391.6094 1.7365 1.4131 2.3384 2.3568s.9943 2.0056 1.1507 3.1139c.1444 1.0731.048 2.165-.2821 3.1963s-.8857 1.9763-1.6264 2.7663c-1.3848 1.4577-3.226 2.3991-5.2188 2.6683"/></g></svg>