<svg fill="none" height="105" viewBox="0 0 383 105" width="383" xmlns="http://www.w3.org/2000/svg"><g fill="#fff"><path d="m14.6284 17.3561h-7.57536l-1.21602 3.5422h-5.647717l7.755477-20.397042h5.79182l7.7555 20.397042h-5.6477zm-1.4052-4.029-2.414-6.79596-2.35099 6.79596z"/><path d="m54.3154.501258v15.908442h6.3052v4.5066h-11.6017v-20.415042z"/><path d="m100.191 5.0079h-6.3054v3.38899h5.9449v4.50661h-5.9449v3.5152h6.3054v4.5066h-11.6019v-20.424042h11.6019z"/><path d="m135.032 10.0193-6.35-9.518042h6.539l2.765 5.272762 3.432-5.272762h6.54l-6.729 9.518042 7.593 10.879h-6.503l-4.08-6.6518-4.792 6.6518h-6.405z"/><path d="m188.618 17.3561h-7.567l-1.216 3.5422h-5.657l7.774-20.397042h5.783l7.728 20.397042h-5.656zm-1.406-4.029-2.378-6.79596-2.378 6.79596z"/><path d="m223.008 20.8983v-20.397042h5.297l9.791 12.474342v-12.474342h5.269v20.397042h-5.269l-9.791-12.47437v12.47437z"/><path d="m272.829.501329h7.846c1.345-.008621 2.676.277481 3.9.838231 1.194.5426 2.278 1.3003 3.198 2.2353.912.93344 1.639 2.03139 2.143 3.23576.512 1.22492.775 2.53921.775 3.86668 0 1.3275-.263 2.6418-.775 3.8667-.498 1.2133-1.222 2.3206-2.135 3.2628-.9.9382-1.966 1.7021-3.143 2.2533-1.232.5627-2.573.8488-3.927.8383h-7.846zm5.305 15.908471h1.216c.84.0142 1.675-.1326 2.46-.4327.676-.267 1.29-.6722 1.801-1.1897.501-.5145.887-1.1287 1.135-1.8027.269-.7329.404-1.5085.396-2.2894.006-.77557-.132-1.54555-.405-2.2713-.254-.68287-.65-1.30374-1.163-1.82128s-1.129-.91985-1.81-1.18014c-.775-.29836-1.601-.44522-2.432-.43264h-1.216z"/><path d="m336.224 20.8983h-6.549l-5.053-7.8415v7.8415h-5.296v-20.397002h8.242c1.012-.01793 2.02.150091 2.972.49573.79.301032 1.505.768242 2.099 1.370022.548.57414.971 1.25538 1.243 2.00094.282.78005.422 1.60418.414 2.43359.065 1.34898-.329 2.68017-1.117 3.77652-.841 1.0224-2.014 1.7175-3.314 1.9649zm-11.647-11.28458h1c.852.06012 1.699-.16848 2.405-.64896.279-.22084.501-.50569.647-.83044.145-.32475.211-.67986.191-1.0353.02-.35544-.046-.71056-.191-1.03531-.146-.32475-.368-.60959-.647-.83044-.708-.47603-1.554-.7042-2.405-.64896h-1z"/><path d="m376.127 17.3561h-7.566l-1.216 3.5422h-5.648l7.756-20.397042h5.782l7.765 20.397042h-5.657zm-1.414-4.029-2.378-6.79596-2.378 6.79596z"/><path d="m3.46815 41.9624 5.63871 14.1508 5.71974-14.1508h3.3689l-9.18772 21.9383-8.899432-21.9383z"/><path d="m61.4764 57.4201h-8.7283l-2.3059 4.9483h-3.2788l10.0884-21.6319 9.7282 21.6319h-3.3688zm-1.2521-2.8933-3.0265-6.9402-3.1526 6.9402z"/><path d="m99.9836 62.3683v-21.7851l14.8714 15.566v-14.187h3.072v21.6319l-14.845-15.5028v14.277z"/><path d="m169.954 62.3684h-6.602l-5.054-7.8416v7.8416h-5.296v-20.4061h8.233c1.013-.0192 2.022.152 2.972.5048.769.2819 1.467.7302 2.043 1.3128.576.5827 1.017 1.2855 1.29 2.0581.285.7796.428 1.6037.423 2.4336.063 1.35-.334 2.6813-1.126 3.7766-.841 1.0223-2.014 1.7175-3.314 1.9649zm-11.656-11.2756h1c.851.0552 1.697-.173 2.405-.649.264-.2351.474-.5232.619-.8455.144-.3223.219-.6715.219-1.0247 0-.3533-.075-.7025-.219-1.0248-.145-.3223-.355-.6104-.619-.8455-.708-.476-1.554-.7042-2.405-.649h-1z"/><path d="m211.046 41.9624v20.406h-5.296v-20.406zm13.511 0v15.4037c.002.5513-.032 1.1022-.099 1.6494-.047.4438-.149.8799-.306 1.2979-.349.8174-.875 1.547-1.54 2.1361-1.269 1.1421-2.924 1.7605-4.63 1.7306-1.084.0149-2.154-.2543-3.102-.7808s-1.742-1.2921-2.303-2.2206l3.459-3.5422c.057.5329.263 1.0391.595 1.4601.135.1706.308.3079.505.4017.196.0937.412.1413.63.1391.991 0 1.486-.7842 1.486-2.3525v-15.3225z"/><path d="m277.125 48.7854c-.534-.6994-1.222-1.2659-2.011-1.6552s-1.658-.5909-2.537-.5891c-.755-.0073-1.503.1399-2.198.4326-.655.275-1.248.6762-1.748 1.1808-.498.5176-.888 1.1307-1.144 1.8026-.284.7043-.428 1.4576-.423 2.2173-.007.7686.137 1.531.423 2.2443.264.6627.656 1.2666 1.154 1.7771.497.5105 1.091.9174 1.747 1.1973.683.2913 1.419.4386 2.162.4326.872-.0158 1.731-.2169 2.52-.5898s1.489-.9092 2.055-1.5734v6.3093l-.54.1893c-.743.2689-1.505.4828-2.279.6399-.686.1321-1.382.1985-2.081.1983-2.777-.0274-5.435-1.1401-7.404-3.1005-.995-.9895-1.796-2.1575-2.36-3.4431-.582-1.368-.882-2.8395-.882-4.3264 0-1.4868.3-2.9584.882-4.3264.851-1.9038 2.234-3.5208 3.983-4.6562 1.748-1.1354 3.787-1.7407 5.871-1.7432.806.0008 1.609.0885 2.396.2614.849.1855 1.679.4511 2.477.7932z"/><path d="m320.217 50.3808 6.459-8.4184h6.548l-8.106 9.6622 8.845 10.7348h-6.873l-6.891-8.842v8.842h-5.296v-20.397h5.296z"/><path d="m381.505 46.469h-6.306v3.416h5.945v4.5067h-5.945v3.5151h6.306v4.5067h-11.593v-20.4511h11.593z"/><path d="m5.75581 83.4236 4.92709 12.4202 4.9452-12.4202h5.7558l-8.5932 20.4154h-4.21554l-8.57516-20.4154z"/><path d="m173.061 103.838h-6.602l-5.053-7.8411v7.8411h-5.297v-20.4146h8.242c1.014-.0192 2.022.152 2.973.5047.77.2799 1.468.7263 2.046 1.3074.578.5812 1.02 1.2827 1.295 2.0546.285.7827.428 1.6097.424 2.4426.061 1.3471-.336 2.6751-1.126 3.7675-.842 1.0224-2.014 1.7175-3.315 1.9649zm-11.655-11.2751h1c.851.0552 1.696-.173 2.405-.649.263-.2351.474-.5232.618-.8455.145-.3223.219-.6716.219-1.0248s-.074-.7024-.219-1.0247c-.144-.3223-.355-.6105-.618-.8455-.71-.4723-1.555-.7002-2.405-.649h-1z"/><path d="m240.726 88.6602c-.521-.43-1.104-.7794-1.729-1.0365-.532-.2179-1.101-.3341-1.676-.3425-.596-.0276-1.186.1436-1.675.4867-.203.1433-.368.3339-.481.5553s-.171.467-.167.7156c-.012.3309.104.6537.324.9013.245.2527.535.4575.856.6039.382.1846.78.3354 1.188.4507.442.1261.901.2613 1.307.4055 1.455.4036 2.771 1.2022 3.801 2.3075.84 1.0743 1.268 2.4139 1.207 3.7765.012.9723-.168 1.9373-.532 2.8388-.341.835-.868 1.581-1.54 2.182-.725.632-1.571 1.11-2.486 1.406-1.079.346-2.208.514-3.342.495-2.568.003-5.073-.801-7.161-2.298l2.27-4.2723c.698.6408 1.491 1.1697 2.351 1.5683.721.3308 1.504.5059 2.297.5138.698.0549 1.39-.1578 1.937-.5949.195-.1672.352-.3744.461-.6076s.167-.487.169-.7444c.006-.276-.05-.55-.162-.8021-.13-.2463-.315-.4592-.54-.622-.304-.2161-.634-.3918-.982-.5227-.406-.1623-.901-.3425-1.478-.5408-.576-.1983-1.36-.4597-2.017-.7211-.638-.2478-1.231-.5979-1.757-1.0365-.526-.4517-.95-1.0111-1.243-1.6404-.34-.7901-.5-1.646-.468-2.5057-.01-.9248.158-1.8428.495-2.704.316-.7937.795-1.5123 1.405-2.1091.636-.606 1.39-1.0727 2.216-1.37.942-.3358 1.937-.5006 2.937-.4868 1.067.0092 2.129.1515 3.161.4237 1.1.2783 2.162.6899 3.162 1.2258z"/><path d="m312.867 87.9302h-6.305v3.407h5.945v4.5066h-5.945v3.5152h6.305v4.507h-11.601v-20.4424h11.601z"/><path d="m376.235 83.4236v15.9083h6.351v4.5071h-11.647v-20.4154z"/><path d="m86.3191 104.082c1.0676-.223 2.069-.691 2.9255-1.366.8564-.676 1.5447-1.541 2.0106-2.528.8273-1.789 1.0334-3.8035.5855-5.7232-.4121-1.8218-1.4397-3.4454-2.9095-4.5968-.7535-.6007-1.621-1.0421-2.5499-1.2977-.929-.2557-1.9001-.3201-2.8546-.1895-1.9797.2732-3.7708 1.32-4.9811 2.9113-.6168.8139-1.0672 1.7416-1.3253 2.7298-.2581.9883-.3189 2.0178-.179 3.0297.2643 2.134 1.3263 4.0884 2.9725 5.4714.8687.713 1.8856 1.223 2.9764 1.493 1.0909.269 2.2281.292 3.3289.066zm.054.306c-2.3169.348-4.6824-.121-6.6926-1.325-1.0484-.621-1.958-1.451-2.6723-2.439-.7143-.9873-1.2181-2.1114-1.4802-3.302-.5125-2.4914-.0169-5.0844 1.3782-7.2107.7097-1.0777 1.6247-2.005 2.6926-2.7288 1.068-.7237 2.2681-1.2298 3.5316-1.4894 2.6204-.5431 5.3491-.0384 7.6023 1.4061 1.1346.737 2.098 1.7089 2.8252 2.8501.7273 1.1413 1.2014 2.4254 1.3904 3.7656.1744 1.2978.0579 2.6182-.3409 3.8654-.3989 1.2472-1.0701 2.3897-1.9651 3.3457-1.6731 1.762-3.8975 2.901-6.3052 3.226"/></g></svg>